REM DIRINDEX 1\2,1\3,1\4,1\5
REM DIRNAME folder01,folder02,folder03,folder04,folder05
TITLE ""
FILE "P1Q_t_0742-0751.mp3" MP3
  TRACK 01 AUDIO
    TITLE "3:cjc005_3130"
    INDEX 01 00:00:00
  TRACK 02 AUDIO
    TITLE "0:"
    INDEX 01 00:00:62
  TRACK 03 AUDIO
    TITLE "4:cjc005_3131"
    INDEX 01 00:01:11
  TRACK 04 AUDIO
    TITLE "0:"
    INDEX 01 00:02:28
  TRACK 05 AUDIO
    TITLE "5:cjc005_3132"
    INDEX 01 00:02:51
  TRACK 06 AUDIO
    TITLE "0:"
    INDEX 01 00:06:41
  TRACK 07 AUDIO
    TITLE "3:cjc005_3133"
    INDEX 01 00:07:15
  TRACK 08 AUDIO
    TITLE "0:"
    INDEX 01 00:08:17
  TRACK 09 AUDIO
    TITLE "4:cjc005_3134"
    INDEX 01 00:08:44
  TRACK 10 AUDIO
    TITLE "0:"
    INDEX 01 00:09:49
  TRACK 11 AUDIO
    TITLE "5:cjc005_3135"
    INDEX 01 00:09:71
  TRACK 12 AUDIO
    TITLE "0:"
    INDEX 01 00:14:19
  TRACK 13 AUDIO
    TITLE "3:cjc005_3136"
    INDEX 01 00:15:01
  TRACK 14 AUDIO
    TITLE "0:"
    INDEX 01 00:16:12
  TRACK 15 AUDIO
    TITLE "4:cjc005_3137"
    INDEX 01 00:16:38
  TRACK 16 AUDIO
    TITLE "0:"
    INDEX 01 00:18:07
  TRACK 17 AUDIO
    TITLE "5:cjc005_3138"
    INDEX 01 00:18:29
  TRACK 18 AUDIO
    TITLE "0:"
    INDEX 01 00:23:40
  TRACK 19 AUDIO
    TITLE "3:cjc005_3139"
    INDEX 01 00:24:20
  TRACK 20 AUDIO
    TITLE "0:"
    INDEX 01 00:25:31
  TRACK 21 AUDIO
    TITLE "4:cjc005_3140"
    INDEX 01 00:25:62
  TRACK 22 AUDIO
    TITLE "0:"
    INDEX 01 00:27:00
  TRACK 23 AUDIO
    TITLE "5:cjc005_3141"
    INDEX 01 00:27:22
  TRACK 24 AUDIO
    TITLE "0:"
    INDEX 01 00:30:57
  TRACK 25 AUDIO
    TITLE "3:cjc005_3142"
    INDEX 01 00:31:33
  TRACK 26 AUDIO
    TITLE "0:"
    INDEX 01 00:32:50
  TRACK 27 AUDIO
    TITLE "4:cjc005_3143"
    INDEX 01 00:32:72
  TRACK 28 AUDIO
    TITLE "0:"
    INDEX 01 00:34:16
  TRACK 29 AUDIO
    TITLE "5:cjc005_3144"
    INDEX 01 00:34:36
  TRACK 30 AUDIO
    TITLE "0:"
    INDEX 01 00:40:28
  TRACK 31 AUDIO
    TITLE "3:cjc005_3145"
    INDEX 01 00:41:08
  TRACK 32 AUDIO
    TITLE "0:"
    INDEX 01 00:42:33
  TRACK 33 AUDIO
    TITLE "4:cjc005_3146"
    INDEX 01 00:42:59
  TRACK 34 AUDIO
    TITLE "0:"
    INDEX 01 00:43:74
  TRACK 35 AUDIO
    TITLE "5:cjc005_3147"
    INDEX 01 00:44:28
  TRACK 36 AUDIO
    TITLE "0:"
    INDEX 01 00:50:13
  TRACK 37 AUDIO
    TITLE "3:cjc005_3148"
    INDEX 01 00:50:66
  TRACK 38 AUDIO
    TITLE "0:"
    INDEX 01 00:52:00
  TRACK 39 AUDIO
    TITLE "4:cjc005_3149"
    INDEX 01 00:52:24
  TRACK 40 AUDIO
    TITLE "0:"
    INDEX 01 00:53:33
  TRACK 41 AUDIO
    TITLE "5:cjc005_3150"
    INDEX 01 00:53:55
  TRACK 42 AUDIO
    TITLE "0:"
    INDEX 01 00:57:46
  TRACK 43 AUDIO
    TITLE "3:cjc005_3151"
    INDEX 01 00:58:24
  TRACK 44 AUDIO
    TITLE "0:"
    INDEX 01 00:59:24
  TRACK 45 AUDIO
    TITLE "4:cjc005_3152"
    INDEX 01 00:59:45
  TRACK 46 AUDIO
    TITLE "0:"
    INDEX 01 01:01:19
  TRACK 47 AUDIO
    TITLE "5:cjc005_3153"
    INDEX 01 01:01:42
  TRACK 48 AUDIO
    TITLE "0:"
    INDEX 01 01:05:24
  TRACK 49 AUDIO
    TITLE "3:cjc005_3154"
    INDEX 01 01:06:02
  TRACK 50 AUDIO
    TITLE "0:"
    INDEX 01 01:07:17
  TRACK 51 AUDIO
    TITLE "4:cjc005_3155"
    INDEX 01 01:07:45
  TRACK 52 AUDIO
    TITLE "0:"
    INDEX 01 01:08:40
  TRACK 53 AUDIO
    TITLE "5:cjc005_3156"
    INDEX 01 01:08:66
  TRACK 54 AUDIO
    TITLE "0:"
    INDEX 01 01:12:73
  TRACK 55 AUDIO
    TITLE "3:cjc005_3157"
    INDEX 01 01:13:45
  TRACK 56 AUDIO
    TITLE "0:"
    INDEX 01 01:14:68
  TRACK 57 AUDIO
    TITLE "4:cjc005_3158"
    INDEX 01 01:15:23
  TRACK 58 AUDIO
    TITLE "0:"
    INDEX 01 01:16:24
  TRACK 59 AUDIO
    TITLE "5:cjc005_3159"
    INDEX 01 01:16:46
  TRACK 60 AUDIO
    TITLE "0:"
    INDEX 01 01:21:29
